<svg xmlns="http://www.w3.org/2000/svg" viewBox="0 0 481.94 208.37"><defs><style>.cls-1,.cls-2{fill:#e72b29;}.cls-2{font-size:188.74px;font-family:GillSansMT-Condensed, Gill Sans MT Condensed;}</style></defs><g id="레이어_2" data-name="레이어 2"><g id="LKJ"><path id="넷플릭스" class="cls-1" d="M233.44,36.08H174.69c0,5.43,0,13.25,0,18.69h2.53c2.56,0,5.11,0,7.67.05s5.11,0,7.66,0h2c0,30.14-.07,57.67-.11,87.8,6.22-.23,12.88-.42,19.11-.58,0-30,.05-57.34.08-87.31l19.94-.06c0-5.33,0-13.28,0-18.62"/><path id="넷플릭스-2" data-name="넷플릭스" class="cls-1" d="M298.6,35.65H245.71s0,70.61,0,106l6.25,0c4.27,0,8.57,0,12.78.05,0-15,0-28.75,0-43.78h3.17l7.54,0,7.6,0c2.59,0,5.17,0,7.69,0,0-5.39,0-13.41,0-18.8-2.37,0-4.8,0-7.26,0l-7.92,0-7.86,0H264.7c0-9.66,0-15.11,0-24.78,2.09,0,12.55.28,12.55.28h6.35l15.53,0c0-5.4,0-13.58,0-19"/><path id="넷플릭스-3" data-name="넷플릭스" class="cls-1" d="M311.31,36.08c.05,35.53-.12,71.05-.08,106.58,17,.63,34.78,1.32,51.72,2.49,0-5.47,0-13.33,0-18.79-10.72-.63-21.88-1.39-32.61-1.83-.05-30.43.12-58,.07-88.45H311"/><path id="넷플릭스-4" data-name="넷플릭스" class="cls-1" d="M378.6,35.65q.11,55.11.22,110.22c6.21.48,12.64,1,18.85,1.55q0-55.84,0-111.77H378.6"/><path id="넷플릭스-5" data-name="넷플릭스" class="cls-1" d="M414,35.94c7.63,18.57,14.6,37.2,22.35,56.93-8.05,18.95-16.25,37.78-24.29,55.95,6.66.66,13.55,1.62,20.21,2.36,4.77-11.7,9.12-20.71,13.89-32.74,4.78,12.81,9.11,22.7,13.87,35.92,6.64.87,15.26,2.1,21.89,3-8-21.5-16.84-43.89-24.93-64.21,8.06-19.09,16.28-37.3,24.64-58.55H460.83c-5.16,13.62-8.72,21.55-13.67,33.29-4.61-12.22-7.7-20.12-12.32-32.29H413.6"/><path id="넷플릭스-6" data-name="넷플릭스" class="cls-1" d="M165.57,34.65l-.21,110.22c-6.22.48-12.65,1-18.85,1.55q0-55.84,0-111.77h19.1"/><text class="cls-2" transform="translate(0 157.41)">D</text><path class="cls-1" d="M80.6,149.2V35a2.23,2.23,0,0,1,2.15-2.3H96.63q38.76,0,38.76,60.14c0,15.33-3,27.6-6.91,36.75a28.78,28.78,0,0,1-10,12.41c-4.11,3.79-7.14,5.46-15.55,7.19a2,2,0,0,0-.35.09,31.87,31.87,0,0,1-7.78,1.5l-11.92.76A2.21,2.21,0,0,1,80.6,149.2Zm15-12.14a2.23,2.23,0,0,0,2.15,2.3h0q12.89,0,18.22-10.54T121.3,94q0-25.31-5-35.84T98.08,47.65h-.33A2.23,2.23,0,0,0,95.6,50Z"/></g></g></svg>